<svg width="20" height="24" viewBox="0 0 20 24" fill="none" xmlns="http://www.w3.org/2000/svg">
<path d="M8.63705 18.7476C7.70143 19.6122 6.40735 19.8059 5.25957 19.2532C4.84463 19.0534 4.49448 18.7775 4.22035 18.447L2.65749 21.9038C2.58638 22.061 2.66579 22.1796 2.70319 22.2232C2.7406 22.2668 2.84565 22.3633 3.01187 22.3171L4.14962 22.0004C4.27658 21.965 4.40776 21.947 4.53957 21.947C4.81225 21.9471 5.07938 22.024 5.31029 22.1691C5.54119 22.3141 5.72652 22.5213 5.84499 22.7669L6.35884 23.8303C6.43388 23.9857 6.57465 24.0012 6.63324 24C6.69071 23.9993 6.83209 23.9806 6.90315 23.8233L9.38907 18.3247C9.10879 18.405 8.85123 18.5498 8.63705 18.7476ZM17.3417 21.9038L15.7788 18.447C15.5047 18.7775 15.1546 19.0534 14.7396 19.2532C13.5918 19.8059 12.2978 19.6122 11.3621 18.7476C11.1479 18.5498 10.8903 18.4049 10.61 18.3247L13.0959 23.8233C13.1671 23.9806 13.3084 23.9993 13.3659 24C13.4244 24.0012 13.5652 23.9857 13.6403 23.8303L14.1541 22.7669C14.2726 22.5213 14.4579 22.3141 14.6888 22.1691C14.9197 22.024 15.1868 21.947 15.4595 21.947C15.5888 21.947 15.7199 21.9644 15.8495 22.0004L16.9872 22.3171C17.1534 22.3634 17.2585 22.2668 17.2959 22.2232C17.3334 22.1795 17.4128 22.061 17.3417 21.9038Z" fill="white"/>
<path d="M18.5697 9.7402C17.2718 8.85145 16.869 7.08684 17.6529 5.72292C18.124 4.90303 17.8788 4.09284 17.4922 3.60802C17.1056 3.12333 16.3702 2.70403 15.4662 2.98083C13.9622 3.44147 12.3313 2.65622 11.7536 1.19297C11.4064 0.313406 10.62 0 10 0C9.38 0 8.59367 0.313406 8.24642 1.19302C7.66873 2.65631 6.03795 3.44147 4.53387 2.98088C3.6297 2.70412 2.89447 3.12333 2.5078 3.60806C2.12122 4.09289 1.87601 4.90298 2.34715 5.72297C3.131 7.08684 2.72825 8.8515 1.43028 9.74025C0.649998 10.2746 0.519451 11.1109 0.657358 11.7154C0.795264 12.3199 1.27583 13.0167 2.21065 13.1595C3.76569 13.3971 4.89416 14.8121 4.77983 16.3811C4.71101 17.3243 5.2835 17.9478 5.84211 18.2168C6.40076 18.4859 7.24517 18.5447 7.93967 17.9029C8.51726 17.3691 9.25878 17.1021 9.99997 17.1021C10.7414 17.1021 11.4825 17.369 12.0602 17.9029C12.7548 18.5448 13.5993 18.4859 14.1579 18.2168C14.7165 17.9478 15.2889 17.3243 15.2202 16.3811C15.1058 14.8122 16.2343 13.3971 17.7893 13.1595C18.7242 13.0167 19.2046 12.3198 19.3426 11.7154C19.4806 11.1108 19.3499 10.2745 18.5697 9.7402ZM10 15.7464C6.59806 15.7464 3.83037 12.9787 3.83037 9.57675C3.83037 6.1748 6.59801 3.40706 10 3.40706C13.402 3.40706 16.1697 6.17475 16.1697 9.5767C16.1696 12.9787 13.402 15.7464 10 15.7464Z" fill="white"/>
<path d="M9.9998 4.55762C7.23211 4.55762 4.98047 6.8093 4.98047 9.57695C4.98047 12.3446 7.23206 14.5963 9.9998 14.5963C12.7675 14.5963 15.0191 12.3446 15.0191 9.57695C15.0191 6.8093 12.7675 4.55762 9.9998 4.55762ZM12.5721 9.09029L9.44822 11.3719C9.3865 11.417 9.31641 11.4494 9.24206 11.467C9.1677 11.4847 9.09056 11.4874 9.01515 11.475C8.93974 11.4625 8.86757 11.4351 8.80286 11.3944C8.73815 11.3538 8.68219 11.3006 8.63827 11.2381L7.70386 9.90765C7.52128 9.64763 7.58405 9.2889 7.84397 9.10632C8.10394 8.92374 8.46263 8.98646 8.64525 9.24643L9.24291 10.0974L11.8936 8.16137C12.1501 7.9741 12.51 8.02998 12.6973 8.28657C12.8847 8.54307 12.8286 8.90288 12.5721 9.09029Z" fill="white"/>
</svg>
