<svg width="14" height="14" viewBox="0 0 14 14" fill="none" xmlns="http://www.w3.org/2000/svg">
<path d="M5.68822 1.1811C6.22467 0.0509615 7.77467 0.0509594 8.31113 1.1811L9.23827 3.13428C9.4513 3.58306 9.86308 3.89412 10.3394 3.96609L12.4126 4.27929C13.6121 4.46052 14.0911 5.99319 13.2231 6.87288L11.723 8.39322C11.3783 8.74255 11.221 9.24585 11.3023 9.73911L11.6565 11.8859C11.8614 13.128 10.6074 14.0753 9.5345 13.4888L7.68023 12.4752C7.25417 12.2423 6.74518 12.2423 6.31912 12.4752L4.46485 13.4888C3.39194 14.0753 2.13796 13.128 2.34287 11.8859L2.697 9.73911C2.77837 9.24585 2.62108 8.74255 2.2764 8.39322L0.776258 6.87289C-0.0917481 5.99319 0.387227 4.46052 1.58678 4.27929L3.65992 3.96609C4.13627 3.89412 4.54805 3.58306 4.76108 3.13428L5.68822 1.1811Z" fill="#E8C342"/>
</svg>
